<?xml version="1.0" encoding="UTF-8" standalone="no"?>
<!-- Created with Inkscape (http://www.inkscape.org/) -->

<svg
   xmlns:dc="http://purl.org/dc/elements/1.1/"
   xmlns:cc="http://creativecommons.org/ns#"
   xmlns:rdf="http://www.w3.org/1999/02/22-rdf-syntax-ns#"
   xmlns:svg="http://www.w3.org/2000/svg"
   xmlns="http://www.w3.org/2000/svg"
   xmlns:sodipodi="http://sodipodi.sourceforge.net/DTD/sodipodi-0.dtd"
   xmlns:inkscape="http://www.inkscape.org/namespaces/inkscape"
   width="140.01904"
   height="140.05174"
   id="svg3289"
   version="1.1"
   inkscape:version="0.48.4 r9939"
   sodipodi:docname="orca-logo.svg"
   inkscape:export-filename="/home/krueger/Documents/buero-bokazio/Kunden/Orca-Group/webseite/orca-logo.png"
   inkscape:export-xdpi="89.989998"
   inkscape:export-ydpi="89.989998">
  <defs
     id="defs3291">
    <clipPath
       clipPathUnits="userSpaceOnUse"
       id="clipPath126">
      <path
         inkscape:connector-curvature="0"
         d="m 465.385,723.344 93.891,0 0,93.743 -93.891,0 0,-93.743 z"
         id="path128" />
    </clipPath>
  </defs>
  <sodipodi:namedview
     id="base"
     pagecolor="#ffffff"
     bordercolor="#666666"
     borderopacity="1.0"
     inkscape:pageopacity="0.0"
     inkscape:pageshadow="2"
     inkscape:zoom="1.7460215"
     inkscape:cx="36.154587"
     inkscape:cy="58.50106"
     inkscape:document-units="px"
     inkscape:current-layer="layer1"
     showgrid="false"
     inkscape:window-width="1920"
     inkscape:window-height="991"
     inkscape:window-x="0"
     inkscape:window-y="27"
     inkscape:window-maximized="1"
     fit-margin-top="10"
     fit-margin-left="10"
     fit-margin-right="10"
     fit-margin-bottom="10.2" />
  <metadata
     id="metadata3294">
    <rdf:RDF>
      <cc:Work
         rdf:about="">
        <dc:format>image/svg+xml</dc:format>
        <dc:type
           rdf:resource="http://purl.org/dc/dcmitype/StillImage" />
        <dc:title></dc:title>
      </cc:Work>
    </rdf:RDF>
  </metadata>
  <g
     inkscape:label="Ebene 1"
     inkscape:groupmode="layer"
     id="layer1"
     transform="translate(-187.84467,-306.16278)">
    <g
       id="g4262"
       transform="matrix(0.47999999,0,0,0.47999999,102.88913,226.72756)">
      <g
         transform="matrix(2.6631641,0,0,-2.6631641,357.64715,271.4483)"
         id="g130">
        <path
           inkscape:connector-curvature="0"
           id="path132"
           style="fill:#e6441f;fill-opacity:1;fill-rule:evenodd;stroke:none"
           d="M 0,0 C -0.962,-2.604 10.537,5.873 9.756,3.211 9.691,2.397 9.888,1.736 10.198,1.009 c 1.821,-3.42 2.503,-6.713 1.745,-10.333 -0.188,-0.593 -0.605,-0.827 -1.224,-0.903 -3.568,0.049 -7.012,3.265 -8.322,6.258 C 1.769,-2.456 0.934,-1.316 0,0" />
      </g>
      <g
         transform="matrix(2.6631641,0,0,-2.6631641,357.64715,271.4483)"
         id="g134">
        <path
           inkscape:connector-curvature="0"
           id="path136"
           style="fill:none;stroke:#e10c19;stroke-width:0.068;stroke-linecap:butt;stroke-linejoin:miter;stroke-miterlimit:22.9260006;stroke-opacity:1;stroke-dasharray:none"
           d="M 0,0 C -0.962,-2.604 10.537,5.873 9.756,3.211 9.691,2.397 9.888,1.736 10.198,1.009 c 0.426,-0.8 -2.469,-1.593 1.087,-2.385 0.974,-2.593 1.239,-5.174 0.658,-7.948 -0.188,-0.593 -0.605,-0.827 -1.224,-0.903 -3.568,0.049 -7.012,3.265 -8.322,6.258 C 1.769,-2.456 0.934,-1.316 0,0 z" />
      </g>
      <path
         d="m 443.01328,241.46933 c 1.07326,0.0746 2.03199,0.0959 1.48871,1.40082 -6.41823,8.58072 -16.21334,13.15603 -25.06038,18.69009 -9.41694,7.08668 -19.90715,18.21072 -32.67968,15.06286 -0.30094,-0.0959 -0.60188,-0.18909 -0.90548,-0.2823 -5.68319,4.72445 -10.94294,10.01616 -16.29057,15.11612 -1.23305,1.78965 -1.65649,3.57663 -1.91215,5.66721 -0.35154,10.31177 -3.16651,18.81526 -9.73387,26.15494 -1.22505,1.11853 -2.49538,1.10255 -4.0267,0.45007 -8.1626,-4.86027 -11.82445,-16.86582 -10.86039,-25.51045 0.56726,-4.32764 0.15979,-8.06938 -0.24234,-12.34642 -6.07735,1.70442 -12.08544,3.66451 -18.11751,5.5234 -20.14417,6.23446 -27.59038,14.14406 -43.596,26.73284 -8.91627,6.94819 -17.63547,14.21863 -24.63426,23.18018 -2.65784,3.86159 -4.47146,7.64861 -5.45416,12.23191 -2.54865,14.76458 5.77374,36.30159 -11.27318,44.63463 -1.13717,0.55927 -2.27434,1.11853 -3.41151,1.6778 -0.73237,-8.09336 -2.65518,-16.7593 -5.74178,-24.25877 -3.07329,-5.94684 -10.32775,-9.81109 -8.871,-17.5609 -4.21845,-1.96808 -7.99482,-2.36489 -10.82044,-6.62862 -3.86159,-5.28371 -8.5674,-9.37167 -12.91901,-14.17336 10.903,-7.27842 24.62095,-10.78847 37.00999,-4.562 3.43282,0.767 5.60596,0.008 7.92824,-2.50603 9.27048,-14.40506 13.19332,-38.48006 19.73139,-53.78526 8.91094,-18.96972 24.04837,-26.72486 41.16985,-38.84225 3.86425,-3.02269 8.02678,-6.3916 9.56609,-11.24655 0.63383,-5.56335 -4.58331,-12.5648 -6.94554,-17.71536 -0.83357,-2.41549 -8.19722,-21.64886 -6.72715,-21.83262 18.11218,-3.54734 26.47984,26.79409 43.10864,31.24957 23.89391,5.85629 48.81047,-6.88961 73.75367,-1.48605 10.44492,2.51403 19.65148,8.18124 24.10962,18.38915 0.47937,1.06793 3.3982,6.04538 2.3569,6.57535"
         style="fill:#f42c1b;fill-opacity:1;fill-rule:evenodd;stroke:none"
         id="path140"
         inkscape:connector-curvature="0" />
      <g
         transform="matrix(2.6631641,0,0,-2.6631641,443.01328,241.46933)"
         id="g142">
        <path
           inkscape:connector-curvature="0"
           id="path144"
           style="fill:none;stroke:#e6441f;stroke-width:0.068;stroke-linecap:butt;stroke-linejoin:miter;stroke-miterlimit:22.9260006;stroke-opacity:1;stroke-dasharray:none"
           d="m 0,0 c 0.403,-0.028 0.763,-0.036 0.559,-0.526 -2.41,-3.222 -6.088,-4.94 -9.41,-7.018 -3.536,-2.661 -7.475,-6.838 -12.271,-5.656 -0.113,0.036 -0.226,0.071 -0.34,0.106 -2.134,-1.774 -4.109,-3.761 -6.117,-5.676 -0.463,-0.672 -0.622,-1.343 -0.718,-2.128 -0.132,-3.872 -1.189,-7.065 -3.655,-9.821 -0.46,-0.42 -0.937,-0.414 -1.512,-0.169 -3.065,1.825 -4.44,6.333 -4.078,9.579 0.213,1.625 0.06,3.03 -0.091,4.636 -2.282,-0.64 -4.538,-1.376 -6.803,-2.074 -7.564,-2.341 -10.36,-5.311 -16.37,-10.038 -3.348,-2.609 -6.622,-5.339 -9.249,-8.704 -0.999,-1.45 -1.68,-2.872 -2.049,-4.593 -0.957,-5.544 2.168,-13.631 -4.233,-16.76 -0.427,-0.21 -0.854,-0.42 -1.281,-0.63 -0.275,3.039 -0.996,6.293 -2.156,9.109 -1.154,2.233 -3.878,3.684 -3.331,6.594 -1.584,0.739 -3.001,0.888 -4.063,2.489 -1.45,1.984 -3.216,3.519 -4.85,5.322 4.093,2.733 9.244,4.051 13.896,1.713 1.289,-0.288 2.105,-0.003 2.978,0.941 3.48,5.409 4.954,14.449 7.408,20.196 3.346,7.123 9.03,10.035 15.459,14.585 1.451,1.135 3.014,2.4 3.592,4.223 0.238,2.089 -1.721,4.718 -2.608,6.652 -0.312,0.907 -3.078,8.129 -2.526,8.198 6.802,1.332 9.943,-10.061 16.187,-11.734 8.972,-2.199 18.328,2.587 27.694,0.558 C -6.016,8.43 -2.559,6.302 -0.885,2.469 -0.705,2.068 0.391,0.199 0,0 z" />
      </g>
      <g
         transform="matrix(2.6631641,0,0,-2.6631641,337.28886,287.18254)"
         id="g146">
        <path
           inkscape:connector-curvature="0"
           id="path148"
           style="fill:#ffffff;fill-opacity:1;fill-rule:evenodd;stroke:none"
           d="m 0,0 c -8.476,0.086 -20.745,2.281 -25.362,-6.739 0.099,-2.027 2.053,0.007 3.59,-0.471 0.719,-0.299 0.559,-0.627 0.208,-1.212 -2.938,-2.083 -6.043,-4.908 -4.681,-6.009 2.356,1.355 8.184,6.626 13.53,10.478 C -8.893,-1.969 -4.178,-0.964 0,0" />
      </g>
      <g
         transform="matrix(2.6631641,0,0,-2.6631641,337.28886,287.18254)"
         id="g150">
        <path
           inkscape:connector-curvature="0"
           id="path152"
           style="fill:none;stroke:#e10c19;stroke-width:0.068;stroke-linecap:butt;stroke-linejoin:miter;stroke-miterlimit:22.9260006;stroke-opacity:1;stroke-dasharray:none"
           d="m 0,0 c -8.476,0.086 -20.745,2.281 -25.362,-6.739 0.099,-2.027 2.053,0.007 3.59,-0.471 0.719,-0.299 0.559,-0.627 0.208,-1.212 -2.938,-2.083 -6.043,-4.908 -4.681,-6.009 2.356,1.355 8.184,6.626 13.53,10.478 C -8.893,-1.969 -4.178,-0.964 0,0 z" />
      </g>
      <g
         transform="matrix(2.6631641,0,0,-2.6631641,442.60209,241.69596)"
         id="g154">
        <path
           inkscape:connector-curvature="0"
           id="path156"
           style="fill:#ffffff;fill-opacity:1;fill-rule:evenodd;stroke:none"
           d="M 0,0 0.201,0.006 0.42,0.007 0.541,-0.025 0.639,-0.141 0.625,-0.307 0.502,-0.543 0.218,-0.896 l -0.87,-0.794 -0.814,-0.66 -0.68,-0.496 -0.621,-0.422 -0.563,-0.358 -0.583,-0.352 -0.975,-0.557 -1.137,-0.603 -0.948,-0.494 -0.84,-0.423 -1.034,-0.551 -0.657,-0.372 -0.563,-0.319 -1.364,-0.781 -2.295,-1.32 -1.039,-0.61 -1.25,-0.692 -0.797,-0.445 -0.79,-0.426 -0.771,-0.422 -0.246,-0.103 -0.291,-0.082 -0.393,-0.054 -0.413,-0.02 -0.349,0.034 -0.435,0.047 -0.386,0.084 -0.344,0.092 -0.332,0.098 -0.245,0.086 -0.173,0.137 -0.004,0.17 0.031,0.191 0.083,0.197 0.156,0.248 0.227,0.288 0.256,0.251 0.256,0.25 0.254,0.241 0.211,0.233 0.248,0.292 0.27,0.337 0.314,0.395 0.289,0.371 0.195,0.247 0.377,0.478 0.41,0.488 0.311,0.346 0.264,0.278 0.322,0.313 0.413,0.388 0.475,0.361 0.281,0.194 0.361,0.233 0.302,0.158 0.303,0.129 0.199,0.076 0.603,0.168 0.453,0.058 0.297,0.03 0.382,0.017 0.311,0.007 0.406,-0.009 0.496,-0.004 0.178,-0.007 -0.947,-0.894 0.776,0.481 0.788,0.377 0.186,0.1 0.507,0.183 0.347,0.106 0.265,0.099 0.485,0.139 0.64,0.158 0.606,0.147 0.445,0.1 0.417,0.107 0.413,0.129 0.415,0.138 0.451,0.159 0.687,0.225 0.828,0.267 0.731,0.312 1.594,0.71 0.952,0.433 0.595,0.29 0.437,0.222 L 0,0 z" />
      </g>
      <g
         transform="matrix(2.6631641,0,0,-2.6631641,442.60209,241.69596)"
         id="g158">
        <path
           inkscape:connector-curvature="0"
           id="path160"
           style="fill:none;stroke:#e10c19;stroke-width:0.068;stroke-linecap:butt;stroke-linejoin:miter;stroke-miterlimit:22.9260006;stroke-opacity:1;stroke-dasharray:none"
           d="M 0,0 0.201,0.006 0.42,0.007 0.541,-0.025 0.639,-0.141 0.625,-0.307 0.502,-0.543 0.218,-0.896 l -0.87,-0.794 -0.814,-0.66 -0.68,-0.496 -0.621,-0.422 -0.563,-0.358 -0.583,-0.352 -0.975,-0.557 -1.137,-0.603 -0.948,-0.494 -0.84,-0.423 -1.034,-0.551 -0.657,-0.372 -0.563,-0.319 -1.364,-0.781 -2.295,-1.32 -1.039,-0.61 -1.25,-0.692 -0.797,-0.445 -0.79,-0.426 -0.771,-0.422 -0.246,-0.103 -0.291,-0.082 -0.393,-0.054 -0.413,-0.02 -0.349,0.034 -0.435,0.047 -0.386,0.084 -0.344,0.092 -0.332,0.098 -0.245,0.086 -0.173,0.137 -0.004,0.17 0.031,0.191 0.083,0.197 0.156,0.248 0.227,0.288 0.256,0.251 0.256,0.25 0.254,0.241 0.211,0.233 0.248,0.292 0.27,0.337 0.314,0.395 0.289,0.371 0.195,0.247 0.377,0.478 0.41,0.488 0.311,0.346 0.264,0.278 0.322,0.313 0.413,0.388 0.475,0.361 0.281,0.194 0.361,0.233 0.302,0.158 0.303,0.129 0.199,0.076 0.603,0.168 0.453,0.058 0.297,0.03 0.382,0.017 0.311,0.007 0.406,-0.009 0.496,-0.004 0.178,-0.007 -0.947,-0.894 0.776,0.481 0.788,0.377 0.186,0.1 0.507,0.183 0.347,0.106 0.265,0.099 0.485,0.139 0.64,0.158 0.606,0.147 0.445,0.1 0.417,0.107 0.413,0.129 0.415,0.138 0.451,0.159 0.687,0.225 0.828,0.267 0.731,0.312 1.594,0.71 0.952,0.433 0.595,0.29 0.437,0.222 L 0,0 z" />
      </g>
      <g
         transform="matrix(2.6631641,0,0,-2.6631641,407.81903,246.64625)"
         id="g162">
        <path
           inkscape:connector-curvature="0"
           id="path164"
           style="fill:#ffffff;fill-opacity:1;fill-rule:evenodd;stroke:none"
           d="M 0,0 -0.249,-0.092 -2.778,0.586 -3.254,0.727 -3.729,0.867 -4.092,0.938 -4.394,0.94 -4.675,0.923 -5.088,0.757 -5.544,0.43 -6.531,-0.255 -7.661,-1.034 -7.938,-1.184 -8.3,-1.258 -8.637,-1.339 -9.046,-1.44 -9.313,-1.553 -9.489,-1.717 -9.563,-1.895 -9.55,-2.044 -9.46,-2.2 l 0.117,-0.15 0.18,-0.167 0.152,-0.12 0.204,-0.12 0.328,-0.102 0.271,-0.072 0.236,-0.05 0.366,-0.059 0.595,-0.04 0.611,0.021 0.658,0.1 0.604,0.142 0.657,0.193 0.699,0.248 0.956,0.377 0.848,0.366 1.013,0.441 0.349,0.17 0.222,0.191 0.18,0.229 0.131,0.294 L 0,0 z" />
      </g>
      <g
         transform="matrix(2.6631641,0,0,-2.6631641,407.81903,246.64625)"
         id="g166">
        <path
           inkscape:connector-curvature="0"
           id="path168"
           style="fill:none;stroke:#e10c19;stroke-width:0.068;stroke-linecap:butt;stroke-linejoin:miter;stroke-miterlimit:22.9260006;stroke-opacity:1;stroke-dasharray:none"
           d="M 0,0 -0.249,-0.092 -2.778,0.586 -3.254,0.727 -3.729,0.867 -4.092,0.938 -4.394,0.94 -4.675,0.923 -5.088,0.757 -5.544,0.43 -6.531,-0.255 -7.661,-1.034 -7.938,-1.184 -8.3,-1.258 -8.637,-1.339 -9.046,-1.44 -9.313,-1.553 -9.489,-1.717 -9.563,-1.895 -9.55,-2.044 -9.46,-2.2 l 0.117,-0.15 0.18,-0.167 0.152,-0.12 0.204,-0.12 0.328,-0.102 0.271,-0.072 0.236,-0.05 0.366,-0.059 0.595,-0.04 0.611,0.021 0.658,0.1 0.604,0.142 0.657,0.193 0.699,0.248 0.956,0.377 0.848,0.366 1.013,0.441 0.349,0.17 0.222,0.191 0.18,0.229 0.131,0.294 L 0,0 z" />
      </g>
      <g
         transform="matrix(2.6631641,0,0,-2.6631641,407.97509,244.13329)"
         id="g170">
        <path
           inkscape:connector-curvature="0"
           id="path172"
           style="fill:#e10c19;fill-opacity:1;fill-rule:evenodd;stroke:none"
           d="M 0,0 C 0.638,0.286 1.246,0.001 1.288,-0.249 1.33,-0.499 0.821,-0.795 0.154,-0.908 -0.513,-1.021 -0.897,-1.01 -1.134,-0.659 -1.371,-0.309 -0.638,-0.286 0,0" />
      </g>
      <g
         transform="matrix(2.6631641,0,0,-2.6631641,407.97509,244.13329)"
         id="g174">
        <path
           inkscape:connector-curvature="0"
           id="path176"
           style="fill:none;stroke:#ffffff;stroke-width:0.54000002;stroke-linecap:butt;stroke-linejoin:miter;stroke-miterlimit:22.9260006;stroke-opacity:1;stroke-dasharray:none"
           d="M 0,0 C 0.638,0.286 1.246,0.001 1.288,-0.249 1.33,-0.499 0.821,-0.795 0.154,-0.908 -0.513,-1.021 -0.897,-1.01 -1.134,-0.659 -1.371,-0.309 -0.638,-0.286 0,0 z" />
      </g>
      <path
         d="m 310.89637,363.65822 c 0,3.43016 -0.63383,6.63927 -1.88552,9.62468 -1.25701,2.99872 -3.08661,5.67253 -5.49677,8.03742 -2.43147,2.34093 -5.20649,4.14122 -8.32505,5.41688 -3.11857,1.265 -6.35964,1.89617 -9.72321,1.89617 -3.40885,0 -6.66058,-0.63117 -9.76849,-1.89617 -3.12123,-1.27566 -5.85097,-3.07595 -8.21586,-5.41688 -2.45278,-2.36489 -4.30634,-5.05202 -5.58199,-8.07205 -1.26767,-3.00671 -1.89884,-6.20517 -1.89884,-9.59005 0,-3.40885 0.63117,-6.60465 1.89884,-9.61402 1.27565,-2.99606 3.12921,-5.68319 5.58199,-8.04542 2.36489,-2.34359 5.09463,-4.14122 8.21586,-5.41688 3.10791,-1.26766 6.35964,-1.89883 9.76849,-1.89883 3.38488,0 6.6366,0.63117 9.76848,1.89883 3.13987,1.27566 5.89358,3.07329 8.27978,5.41688 2.38619,2.34092 4.2078,5.01474 5.48345,8.03476 1.26501,3.00938 1.89884,6.21583 1.89884,9.62468 m -25.43055,13.98694 c 3.59527,0 6.57002,-1.32093 8.92426,-3.96279 2.35424,-2.65251 3.53135,-5.99478 3.53135,-10.02415 0,-3.98409 -1.18777,-7.31571 -3.57662,-9.98953 -2.3862,-2.66316 -5.3503,-3.99741 -8.87899,-3.99741 -3.59794,0 -6.57269,1.33425 -8.92693,3.98676 -2.35157,2.65251 -3.52869,5.99212 -3.52869,10.00018 0,4.07464 1.15315,7.42756 3.47543,10.04545 2.31961,2.63121 5.31567,3.94149 8.98019,3.94149 m 33.56652,9.72321 0,-47.60938 13.56615,0 c 5.30503,0 9.01215,0.24501 11.10007,0.73237 2.08792,0.49002 3.89621,1.31027 5.41688,2.45277 1.70975,1.29962 3.03068,2.9641 3.95213,4.97479 0.92146,2.01868 1.37686,4.23976 1.37686,6.67123 0,3.68582 -0.90015,6.68187 -2.70844,8.99084 -1.80829,2.30896 -4.45281,3.84028 -7.91492,4.59662 l 12.96428,19.19076 -14.66338,0 -10.92164,-18.63682 0,18.63682 -12.16799,0 z m 12.16799,-25.10831 2.4075,0 c 2.79633,0 4.84164,-0.47671 6.12794,-1.43278 1.28898,-0.95342 1.93346,-2.45278 1.93346,-4.48477 0,-2.3862 -0.60187,-4.0853 -1.81095,-5.09463 -1.19842,-1.00934 -3.21977,-1.51002 -6.06136,-1.51002 l -2.59659,0 0,12.5222 z m 65.03713,-20.65817 0,14.18668 c -1.77633,-1.97607 -3.55266,-3.4195 -5.31567,-4.34096 -1.76568,-0.92145 -3.66452,-1.38751 -5.67254,-1.38751 -3.73109,0 -6.75112,1.27832 -9.06009,3.81898 -2.3063,2.55398 -3.46211,5.87228 -3.46211,9.96822 0,3.81898 1.17712,6.98282 3.52869,9.50217 2.35424,2.51936 5.3503,3.77371 8.99351,3.77371 2.00802,0 3.90686,-0.46606 5.67254,-1.38751 1.76301,-0.92146 3.53934,-2.37554 5.31567,-4.37292 l 0,14.21864 c -2.06395,0.98803 -4.1066,1.74437 -6.14924,2.24238 -2.032,0.50068 -4.09595,0.74569 -6.17055,0.74569 -2.6099,0 -5.00675,-0.31159 -7.20653,-0.93477 -2.19711,-0.60987 -4.2291,-1.55263 -6.07201,-2.80698 -3.55,-2.38886 -6.25844,-5.38492 -8.12531,-9.00416 -1.86422,-3.62989 -2.79633,-7.70187 -2.79633,-12.23191 0,-3.64054 0.58856,-6.94819 1.77633,-9.9336 1.17712,-2.98807 2.96411,-5.68586 5.3503,-8.11466 2.25304,-2.32228 4.79636,-4.05334 7.62464,-5.20649 2.82029,-1.1425 5.97348,-1.7204 9.44891,-1.7204 2.0746,0 4.13855,0.24235 6.17055,0.74302 2.04264,0.49801 4.08529,1.25435 6.14924,2.24238 m 19.91514,27.97388 12.91102,0 -4.85228,-15.70734 c -0.14381,-0.47671 -0.3542,-1.2437 -0.60987,-2.30896 -0.26631,-1.05462 -0.59921,-2.42082 -1.00933,-4.09595 -0.27964,1.17712 -0.55661,2.28499 -0.83357,3.35292 -0.26632,1.06527 -0.54329,2.07461 -0.82292,3.05199 l -4.78305,15.70734 z m -18.18408,17.7926 16.42906,-47.60938 16.26394,0 16.45037,47.60938 -12.90836,0 -2.41016,-8.52479 -18.43709,0 -2.47674,8.52479 -12.91102,0 z"
         style="fill:#f42c1b;fill-opacity:1;fill-rule:evenodd;stroke:none"
         id="path180"
         inkscape:connector-curvature="0" />
      <g
         transform="matrix(2.6631641,0,0,-2.6631641,201.57295,414.69989)"
         id="g182">
        <path
           inkscape:connector-curvature="0"
           id="path184"
           style="fill:#e6441f;fill-opacity:1;fill-rule:evenodd;stroke:none"
           d="m 0,0 -1.045,0 0,0.674 1.045,0 0,2.331 0.776,0 0,-2.331 1.14,0 0,-0.674 -1.14,0 0,-5.01 L 0,-5.01 0,0 z m 3.086,-5.01 0,9.931 0.748,0 0,-5.126 c 0.232,0.362 0.514,0.636 0.851,0.818 0.334,0.181 0.719,0.271 1.154,0.271 0.646,0 1.149,-0.18 1.507,-0.538 0.359,-0.359 0.538,-0.86 0.538,-1.499 l 0,-3.857 -0.8,0 0,3.503 c 0,0.569 -0.118,0.991 -0.357,1.267 C 6.491,0.035 6.124,0.173 5.629,0.173 5.026,0.173 4.584,-0.007 4.3,-0.363 4.015,-0.719 3.873,-1.279 3.873,-2.045 l 0,-2.965 -0.787,0 z m 10.784,3.492 c -0.039,0.521 -0.212,0.923 -0.518,1.21 -0.308,0.286 -0.724,0.428 -1.249,0.428 -0.479,0 -0.879,-0.148 -1.201,-0.448 -0.323,-0.297 -0.509,-0.695 -0.562,-1.19 l 3.53,0 z m 0.936,-0.673 -4.516,0 c 0.022,-0.735 0.206,-1.313 0.551,-1.73 0.346,-0.418 0.809,-0.628 1.389,-0.628 0.42,0 0.787,0.113 1.102,0.339 0.317,0.227 0.58,0.569 0.787,1.026 l 0.727,-0.399 c -0.291,-0.575 -0.648,-0.999 -1.068,-1.27 -0.422,-0.271 -0.936,-0.407 -1.548,-0.407 -0.833,0 -1.507,0.278 -2.021,0.836 -0.514,0.557 -0.772,1.288 -0.772,2.193 0,0.932 0.256,1.684 0.765,2.257 0.51,0.571 1.179,0.858 2.004,0.858 0.785,0 1.415,-0.265 1.889,-0.792 0.475,-0.527 0.711,-1.231 0.711,-2.111 l 0,-0.172 z m 9.842,1.826 c -0.265,0.184 -0.547,0.322 -0.846,0.413 -0.298,0.092 -0.606,0.138 -0.923,0.138 -0.705,0 -1.267,-0.225 -1.684,-0.676 -0.418,-0.45 -0.628,-1.052 -0.628,-1.804 0,-0.667 0.216,-1.216 0.649,-1.647 0.436,-0.431 0.989,-0.647 1.663,-0.647 0.308,0 0.619,0.052 0.933,0.159 0.313,0.108 0.622,0.267 0.926,0.481 l 0,-0.863 c -0.278,-0.16 -0.586,-0.278 -0.923,-0.357 -0.337,-0.079 -0.698,-0.118 -1.083,-0.118 -0.866,0 -1.577,0.284 -2.132,0.855 -0.556,0.571 -0.833,1.299 -0.833,2.187 0,0.928 0.288,1.68 0.868,2.259 0.577,0.58 1.332,0.869 2.257,0.869 0.343,0 0.665,-0.033 0.964,-0.099 0.302,-0.067 0.569,-0.162 0.805,-0.286 l -0.013,-0.864 z m 2.349,1.039 0,-2.839 c 0,-0.862 0.122,-1.472 0.37,-1.826 0.244,-0.354 0.66,-0.532 1.246,-0.532 0.58,0 0.997,0.179 1.249,0.538 0.251,0.359 0.378,0.967 0.378,1.82 l 0,2.839 0.781,0 0,-3.242 c 0,-0.885 -0.203,-1.554 -0.608,-2.01 -0.407,-0.454 -1.002,-0.682 -1.789,-0.682 -0.789,0 -1.389,0.228 -1.8,0.682 -0.409,0.456 -0.614,1.125 -0.614,2.01 l 0,3.242 0.787,0 z M 33.291,0 l -1.045,0 0,0.674 1.045,0 0,2.331 0.777,0 0,-2.331 1.139,0 0,-0.674 -1.139,0 0,-5.01 -0.777,0 0,5.01 z m 4.304,0 -1.045,0 0,0.674 1.045,0 0,2.331 0.777,0 0,-2.331 1.139,0 0,-0.674 -1.139,0 0,-5.01 -0.777,0 0,5.01 z m 2.94,2.892 c 0,0.166 0.059,0.308 0.179,0.424 0.12,0.118 0.262,0.177 0.431,0.177 0.166,0 0.31,-0.059 0.431,-0.177 C 41.698,3.2 41.76,3.058 41.76,2.892 41.76,2.718 41.7,2.576 41.582,2.46 41.466,2.345 41.32,2.288 41.145,2.288 c -0.173,0 -0.317,0.057 -0.433,0.172 -0.118,0.116 -0.177,0.258 -0.177,0.432 m 0.199,-2.218 0.814,0 0,-5.684 -0.814,0 0,5.684 z m 2.965,-5.684 0,5.684 0.748,0 0,-0.879 c 0.232,0.362 0.514,0.636 0.851,0.818 0.335,0.181 0.72,0.271 1.155,0.271 0.645,0 1.148,-0.18 1.507,-0.538 0.358,-0.359 0.538,-0.86 0.538,-1.499 l 0,-3.857 -0.801,0 0,3.503 c 0,0.569 -0.118,0.991 -0.356,1.267 -0.237,0.275 -0.604,0.413 -1.098,0.413 -0.604,0 -1.046,-0.18 -1.33,-0.536 -0.284,-0.356 -0.426,-0.916 -0.426,-1.682 l 0,-2.965 -0.788,0 z m 11.837,5.684 0,-4.698 c 0,-0.746 -0.02,-1.317 -0.062,-1.711 -0.039,-0.393 -0.107,-0.686 -0.201,-0.879 -0.197,-0.422 -0.498,-0.737 -0.903,-0.944 -0.407,-0.208 -0.919,-0.311 -1.54,-0.311 -0.754,0 -1.343,0.147 -1.765,0.44 -0.42,0.293 -0.675,0.735 -0.765,1.329 l 0.986,0 c 0.064,-0.35 0.232,-0.616 0.503,-0.796 0.271,-0.179 0.641,-0.269 1.107,-0.269 0.35,0 0.665,0.062 0.945,0.186 0.28,0.125 0.49,0.296 0.632,0.514 0.094,0.14 0.162,0.304 0.201,0.49 0.042,0.186 0.061,0.475 0.061,0.862 l 0,0.302 0,0.852 C 54.56,-4.365 54.291,-4.682 53.93,-4.914 53.57,-5.144 53.156,-5.26 52.69,-5.26 c -0.798,0 -1.434,0.278 -1.911,0.834 -0.477,0.555 -0.715,1.299 -0.715,2.235 0,0.927 0.242,1.671 0.73,2.233 0.488,0.562 1.133,0.842 1.936,0.842 0.448,0 0.855,-0.116 1.22,-0.35 0.365,-0.232 0.628,-0.541 0.785,-0.926 l 0,1.066 0.801,0 z M 52.82,0.16 c -0.589,0 -1.055,-0.21 -1.394,-0.63 -0.339,-0.422 -0.509,-1 -0.509,-1.735 0,-0.73 0.161,-1.299 0.483,-1.705 0.324,-0.409 0.77,-0.613 1.343,-0.613 0.605,0 1.091,0.217 1.457,0.648 0.365,0.43 0.548,1.012 0.548,1.741 0,0.719 -0.17,1.279 -0.512,1.686 -0.343,0.405 -0.815,0.608 -1.416,0.608 m 13.596,0.514 0,-4.698 c 0,-0.746 -0.02,-1.317 -0.061,-1.711 -0.04,-0.393 -0.107,-0.686 -0.201,-0.879 -0.197,-0.422 -0.499,-0.737 -0.903,-0.944 -0.407,-0.208 -0.919,-0.311 -1.54,-0.311 -0.755,0 -1.343,0.147 -1.765,0.44 -0.42,0.293 -0.676,0.735 -0.765,1.329 l 0.986,0 c 0.063,-0.35 0.232,-0.616 0.503,-0.796 0.271,-0.179 0.641,-0.269 1.106,-0.269 0.35,0 0.665,0.062 0.945,0.186 0.28,0.125 0.49,0.296 0.632,0.514 0.095,0.14 0.162,0.304 0.201,0.49 0.042,0.186 0.062,0.475 0.062,0.862 l 0,0.302 0,0.852 c -0.175,-0.406 -0.444,-0.723 -0.805,-0.955 -0.361,-0.23 -0.774,-0.346 -1.24,-0.346 -0.798,0 -1.435,0.278 -1.912,0.834 -0.477,0.555 -0.715,1.299 -0.715,2.235 0,0.927 0.243,1.671 0.73,2.233 0.488,0.562 1.134,0.842 1.936,0.842 0.448,0 0.855,-0.116 1.221,-0.35 0.365,-0.232 0.627,-0.541 0.785,-0.926 l 0,1.066 0.8,0 z M 63.7,0.16 c -0.588,0 -1.054,-0.21 -1.393,-0.63 -0.339,-0.422 -0.51,-1 -0.51,-1.735 0,-0.73 0.162,-1.299 0.484,-1.705 0.323,-0.409 0.769,-0.613 1.342,-0.613 0.606,0 1.092,0.217 1.457,0.648 0.365,0.43 0.549,1.012 0.549,1.741 0,0.719 -0.171,1.279 -0.512,1.686 C 64.774,-0.043 64.301,0.16 63.7,0.16 m 5.603,-0.628 c 0.291,0.492 0.575,0.84 0.855,1.043 0.28,0.206 0.606,0.309 0.978,0.309 0.112,0 0.223,-0.011 0.337,-0.033 C 71.586,0.831 71.698,0.8 71.81,0.763 L 71.554,0.02 c -0.086,0.026 -0.175,0.045 -0.267,0.063 -0.092,0.018 -0.18,0.026 -0.265,0.026 -0.475,0 -0.881,-0.223 -1.216,-0.667 -0.335,-0.443 -0.503,-0.997 -0.503,-1.66 l 0,-2.792 -0.787,0 0,5.684 0.787,0 0,-1.142 z m 5.956,-4.055 c 0.623,0 1.152,0.225 1.585,0.676 0.433,0.451 0.649,1.002 0.649,1.656 0,0.662 -0.216,1.216 -0.647,1.664 -0.431,0.448 -0.96,0.673 -1.587,0.673 -0.624,0 -1.151,-0.225 -1.582,-0.673 -0.431,-0.448 -0.647,-1.002 -0.647,-1.664 0,-0.654 0.216,-1.205 0.647,-1.656 0.431,-0.451 0.958,-0.676 1.582,-0.676 M 75.232,-5.26 c -0.404,0 -0.793,0.081 -1.165,0.241 -0.372,0.16 -0.709,0.389 -1.013,0.689 -0.286,0.282 -0.503,0.605 -0.652,0.973 -0.151,0.367 -0.225,0.761 -0.225,1.178 0,0.414 0.076,0.808 0.229,1.18 0.156,0.371 0.374,0.699 0.661,0.986 0.291,0.291 0.621,0.512 0.993,0.667 0.372,0.153 0.763,0.23 1.172,0.23 0.42,0 0.818,-0.077 1.196,-0.23 0.377,-0.155 0.714,-0.376 1.009,-0.667 0.295,-0.291 0.52,-0.621 0.676,-0.993 0.155,-0.372 0.234,-0.763 0.234,-1.173 0,-0.41 -0.077,-0.8 -0.23,-1.169 -0.155,-0.37 -0.376,-0.696 -0.667,-0.982 -0.3,-0.3 -0.641,-0.529 -1.022,-0.689 -0.382,-0.16 -0.78,-0.241 -1.196,-0.241 m 5.529,5.934 0,-2.839 c 0,-0.862 0.122,-1.472 0.37,-1.826 0.244,-0.354 0.66,-0.532 1.246,-0.532 0.579,0 0.998,0.179 1.249,0.538 0.252,0.359 0.379,0.967 0.379,1.82 l 0,2.839 0.78,0 0,-3.242 c 0,-0.885 -0.203,-1.554 -0.608,-2.01 -0.407,-0.454 -1.001,-0.682 -1.789,-0.682 -0.789,0 -1.389,0.228 -1.8,0.682 -0.409,0.456 -0.614,1.125 -0.614,2.01 l 0,3.242 0.787,0 z m 10.732,-2.879 c 0,0.735 -0.169,1.313 -0.503,1.735 -0.335,0.42 -0.796,0.63 -1.387,0.63 -0.606,0 -1.08,-0.203 -1.423,-0.613 -0.346,-0.406 -0.517,-0.966 -0.517,-1.681 0,-0.725 0.184,-1.306 0.554,-1.739 0.369,-0.433 0.857,-0.65 1.463,-0.65 0.573,0 1.017,0.204 1.336,0.613 0.317,0.406 0.477,0.975 0.477,1.705 m -4.606,-5.664 0,8.543 0.763,0 0,-1.066 c 0.219,0.412 0.501,0.727 0.853,0.945 0.35,0.221 0.742,0.331 1.179,0.331 0.798,0 1.441,-0.28 1.931,-0.842 0.488,-0.562 0.733,-1.306 0.733,-2.233 0,-0.932 -0.239,-1.676 -0.718,-2.233 -0.479,-0.558 -1.115,-0.836 -1.909,-0.836 -0.457,0 -0.859,0.109 -1.211,0.331 -0.351,0.218 -0.635,0.542 -0.858,0.97 l 0,-3.91 -0.763,0 z" />
      </g>
      <path
         d="m 201.57295,414.69989 -2.78301,0 0,-1.79497 2.78301,0 0,-6.20784 2.06662,0 0,6.20784 3.036,0 0,1.79497 -3.036,0 0,13.34245 -2.06662,0 0,-13.34245 z m 8.21852,13.34245 0,-26.44788 1.99205,0 0,13.65138 c 0.61786,-0.96407 1.36887,-1.69377 2.26635,-2.17847 0.8895,-0.48203 1.91482,-0.72172 3.0733,-0.72172 1.7204,0 3.05997,0.47937 4.01338,1.43279 0.95608,0.95607 1.43279,2.29032 1.43279,3.99208 l 0,10.27182 -2.13054,0 0,-9.32906 c 0,-1.51534 -0.31425,-2.6392 -0.95075,-3.37423 -0.6285,-0.73237 -1.60588,-1.09989 -2.92415,-1.09989 -1.60589,0 -2.78301,0.47937 -3.53934,1.42746 -0.75901,0.94808 -1.13718,2.43946 -1.13718,4.47944 l 0,7.89628 -2.09591,0 z m 28.71957,-9.29977 c -0.10387,-1.38751 -0.56459,-2.4581 -1.37952,-3.22243 -0.82026,-0.76166 -1.92813,-1.13983 -3.32629,-1.13983 -1.27566,0 -2.34093,0.39415 -3.19846,1.1931 -0.86021,0.79096 -1.35556,1.8509 -1.4967,3.16916 l 9.40097,0 z m 2.49272,1.79231 -12.02685,0 c 0.0586,1.95743 0.54861,3.49674 1.4674,4.60728 0.92146,1.1132 2.1545,1.67246 3.69914,1.67246 1.11853,0 2.09591,-0.30093 2.9348,-0.90281 0.84423,-0.60454 1.54464,-1.51534 2.09591,-2.73241 l 1.93612,1.06261 c -0.77498,1.53132 -1.72573,2.6605 -2.84426,3.38222 -1.12385,0.72171 -2.49272,1.0839 -4.12257,1.0839 -2.21842,0 -4.01339,-0.74036 -5.38226,-2.2264 -1.36886,-1.48338 -2.05596,-3.43016 -2.05596,-5.84032 0,-2.48207 0.68177,-4.48477 2.03732,-6.01076 1.35821,-1.52067 3.13987,-2.285 5.33698,-2.285 2.09058,0 3.76838,0.70574 5.03072,2.10923 1.265,1.40349 1.89351,3.27835 1.89351,5.62194 l 0,0.45806 z m 26.21086,-4.86294 c -0.70574,-0.49002 -1.45675,-0.85753 -2.25304,-1.09988 -0.79362,-0.24501 -1.61388,-0.36752 -2.4581,-0.36752 -1.87753,0 -3.37423,0.59921 -4.48477,1.8003 -1.1132,1.19842 -1.67246,2.80165 -1.67246,4.80435 0,1.77633 0.57524,3.23841 1.72839,4.38623 1.16114,1.14782 2.63387,1.72307 4.42884,1.72307 0.82026,0 1.6485,-0.13849 2.48473,-0.42345 0.83357,-0.28762 1.65649,-0.71106 2.46609,-1.28098 l 0,2.29831 c -0.74036,0.42611 -1.56061,0.74036 -2.4581,0.95075 -0.89748,0.21039 -1.85889,0.31426 -2.8842,0.31426 -2.3063,0 -4.19981,-0.75634 -5.67787,-2.27701 -1.48072,-1.52067 -2.21842,-3.45945 -2.21842,-5.82434 0,-2.47142 0.767,-4.47412 2.31163,-6.01609 1.53665,-1.54463 3.54734,-2.31429 6.01076,-2.31429 0.91347,0 1.77101,0.0879 2.56729,0.26366 0.80428,0.17843 1.51534,0.43143 2.14385,0.76166 l -0.0346,2.30097 z m 6.25577,-2.76702 0,7.56072 c 0,2.29565 0.32491,3.92018 0.98537,4.86294 0.64981,0.94276 1.75769,1.4168 3.3183,1.4168 1.54464,0 2.65518,-0.47671 3.3263,-1.43278 0.66845,-0.95608 1.00667,-2.57528 1.00667,-4.84696 l 0,-7.56072 2.07993,0 0,8.63398 c 0,2.3569 -0.54062,4.13855 -1.6192,5.35296 -1.08391,1.20907 -2.66849,1.81627 -4.7644,1.81627 -2.10124,0 -3.69914,-0.6072 -4.7937,-1.81627 -1.08923,-1.21441 -1.63518,-2.99606 -1.63518,-5.35296 l 0,-8.63398 2.09591,0 z m 16.76196,1.79497 -2.78301,0 0,-1.79497 2.78301,0 0,-6.20784 2.06927,0 0,6.20784 3.03335,0 0,1.79497 -3.03335,0 0,13.34245 -2.06927,0 0,-13.34245 z m 11.46225,0 -2.783,0 0,-1.79497 2.783,0 0,-6.20784 2.06928,0 0,6.20784 3.03335,0 0,1.79497 -3.03335,0 0,13.34245 -2.06928,0 0,-13.34245 z m 7.82971,-7.69921 c 0,-0.44475 0.15712,-0.82292 0.4767,-1.13184 0.31958,-0.31426 0.69775,-0.47138 1.14783,-0.47138 0.44208,0 0.82558,0.15712 1.14782,0.47138 0.32491,0.30892 0.49002,0.68709 0.49002,1.13184 0,0.46073 -0.15979,0.8389 -0.47404,1.14783 -0.30893,0.30626 -0.69775,0.45806 -1.1638,0.45806 -0.46073,0 -0.84423,-0.1518 -1.15315,-0.45806 -0.31426,-0.30893 -0.47138,-0.6871 -0.47138,-1.14783 z m 0.52997,5.90424 2.16781,0 0,15.13742 -2.16781,0 0,-15.13742 z m 7.89628,15.13742 0,-15.13742 1.99204,0 0,2.34092 c 0.61786,-0.96407 1.36887,-1.69377 2.26636,-2.17847 0.89216,-0.48203 1.91748,-0.72172 3.07595,-0.72172 1.71774,0 3.05731,0.47937 4.01339,1.43279 0.95341,0.95607 1.43278,2.29032 1.43278,3.99208 l 0,10.27182 -2.13319,0 0,-9.32906 c 0,-1.51534 -0.31426,-2.6392 -0.94809,-3.37423 -0.63117,-0.73237 -1.60855,-1.09989 -2.92415,-1.09989 -1.60855,0 -2.78567,0.47937 -3.54201,1.42746 -0.75634,0.94808 -1.13451,2.43946 -1.13451,4.47944 l 0,7.89628 -2.09857,0 z m 31.52387,-15.13742 0,12.51154 c 0,1.98672 -0.0533,3.50739 -0.16511,4.55668 -0.10387,1.04662 -0.28496,1.82693 -0.5353,2.34092 -0.52464,1.12385 -1.32626,1.96275 -2.40484,2.51402 -1.08391,0.55394 -2.44745,0.82825 -4.10127,0.82825 -2.00803,0 -3.57663,-0.39149 -4.70049,-1.17179 -1.11852,-0.78031 -1.79763,-1.95743 -2.03732,-3.53935 l 2.62588,0 c 0.17045,0.93211 0.61786,1.64051 1.33958,2.11988 0.72171,0.47671 1.70708,0.71639 2.94812,0.71639 0.93211,0 1.771,-0.16512 2.51669,-0.49535 0.74568,-0.33289 1.30495,-0.78829 1.68312,-1.36886 0.25034,-0.37285 0.43143,-0.80961 0.53529,-1.30495 0.11186,-0.49535 0.16246,-1.26501 0.16246,-2.29565 l 0,-0.80428 0,-2.26901 c -0.46606,1.08124 -1.18245,1.92546 -2.14385,2.54332 -0.95874,0.61253 -2.06129,0.92145 -3.30232,0.92145 -2.12521,0 -3.81898,-0.74036 -5.08931,-2.22108 -1.27033,-1.47805 -1.90416,-3.45945 -1.90416,-5.95217 0,-2.46875 0.64448,-4.45014 1.94411,-5.94684 1.29962,-1.4967 3.01736,-2.24239 5.15588,-2.24239 1.1931,0 2.27701,0.30893 3.24906,0.93211 0.97206,0.61785 1.67247,1.44077 2.09059,2.46609 l 0,-2.83893 2.13319,0 z m -7.23315,1.36886 c -1.56861,0 -2.80964,0.55927 -3.71245,1.6778 -0.90282,1.12385 -1.35555,2.66316 -1.35555,4.62059 0,1.94411 0.42877,3.45945 1.2863,4.54069 0.86287,1.08924 2.05064,1.63252 3.57663,1.63252 1.61122,0 2.90552,-0.57791 3.88023,-1.72573 0.97206,-1.14516 1.45942,-2.69512 1.45942,-4.63657 0,-1.91481 -0.45274,-3.40618 -1.36354,-4.49009 -0.91347,-1.07858 -2.17048,-1.61921 -3.77104,-1.61921 z m 36.20838,-1.36886 0,12.51154 c 0,1.98672 -0.0533,3.50739 -0.16246,4.55668 -0.10652,1.04662 -0.28495,1.82693 -0.53529,2.34092 -0.52465,1.12385 -1.32892,1.96275 -2.40484,2.51402 -1.08391,0.55394 -2.44745,0.82825 -4.10127,0.82825 -2.01069,0 -3.57663,-0.39149 -4.70049,-1.17179 -1.11853,-0.78031 -1.8003,-1.95743 -2.03732,-3.53935 l 2.62588,0 c 0.16778,0.93211 0.61786,1.64051 1.33957,2.11988 0.72172,0.47671 1.70709,0.71639 2.94546,0.71639 0.93211,0 1.77101,-0.16512 2.51669,-0.49535 0.74569,-0.33289 1.30495,-0.78829 1.68312,-1.36886 0.253,-0.37285 0.43144,-0.80961 0.5353,-1.30495 0.11185,-0.49535 0.16512,-1.26501 0.16512,-2.29565 l 0,-0.80428 0,-2.26901 c -0.46606,1.08124 -1.18245,1.92546 -2.14385,2.54332 -0.9614,0.61253 -2.06129,0.92145 -3.30232,0.92145 -2.12521,0 -3.82165,-0.74036 -5.09197,-2.22108 -1.27033,-1.47805 -1.90417,-3.45945 -1.90417,-5.95217 0,-2.46875 0.64715,-4.45014 1.94411,-5.94684 1.29963,-1.4967 3.02003,-2.24239 5.15589,-2.24239 1.1931,0 2.277,0.30893 3.25172,0.93211 0.97206,0.61785 1.66981,1.44077 2.09059,2.46609 l 0,-2.83893 2.13053,0 z m -7.23316,1.36886 c -1.56594,0 -2.80697,0.55927 -3.70978,1.6778 -0.90282,1.12385 -1.35822,2.66316 -1.35822,4.62059 0,1.94411 0.43143,3.45945 1.28897,4.54069 0.86021,1.08924 2.04798,1.63252 3.57397,1.63252 1.61388,0 2.90817,-0.57791 3.88023,-1.72573 0.97205,-1.14516 1.46208,-2.69512 1.46208,-4.63657 0,-1.91481 -0.4554,-3.40618 -1.36354,-4.49009 -0.91347,-1.07858 -2.17315,-1.61921 -3.77371,-1.61921 z m 14.92171,1.67247 c 0.77498,-1.31028 1.53132,-2.23706 2.27701,-2.77768 0.74568,-0.54861 1.61387,-0.82292 2.60457,-0.82292 0.29828,0 0.59389,0.0293 0.89749,0.0879 0.30094,0.0533 0.59921,0.13582 0.89748,0.23436 l -0.68177,1.97873 c -0.22903,-0.0693 -0.46605,-0.11985 -0.71106,-0.16778 -0.24501,-0.0479 -0.47937,-0.0692 -0.70574,-0.0692 -1.265,0 -2.34625,0.59388 -3.23841,1.77633 -0.89216,1.17978 -1.33957,2.65517 -1.33957,4.42085 l 0,7.43555 -2.09591,0 0,-15.13742 2.09591,0 0,3.04133 z m 15.86181,10.79913 c 1.65915,0 3.06796,-0.59921 4.22111,-1.8003 1.15315,-1.20108 1.7284,-2.66849 1.7284,-4.4102 0,-1.76301 -0.57525,-3.23841 -1.72307,-4.4315 -1.14783,-1.1931 -2.55664,-1.79231 -4.22644,-1.79231 -1.66182,0 -3.0653,0.59921 -4.21313,1.79231 -1.14782,1.19309 -1.72307,2.66849 -1.72307,4.4315 0,1.74171 0.57525,3.20912 1.72307,4.4102 1.14783,1.20109 2.55131,1.8003 4.21313,1.8003 z m -0.0719,1.96275 c -1.07592,0 -2.11189,-0.21571 -3.10258,-0.64182 -0.9907,-0.42611 -1.88819,-1.03597 -2.69779,-1.83492 -0.76166,-0.75101 -1.33957,-1.61121 -1.73638,-2.59126 -0.40214,-0.97738 -0.59921,-2.02667 -0.59921,-3.13721 0,-1.10255 0.2024,-2.15183 0.60986,-3.14253 0.41545,-0.98803 0.99602,-1.86155 1.76035,-2.62588 0.77498,-0.77498 1.65383,-1.36354 2.64452,-1.77633 0.9907,-0.40746 2.032,-0.61253 3.12123,-0.61253 1.11853,0 2.17847,0.20507 3.18515,0.61253 1.00401,0.41279 1.9015,1.00135 2.68713,1.77633 0.78563,0.77498 1.38484,1.65383 1.8003,2.64452 0.41279,0.9907 0.62318,2.032 0.62318,3.12389 0,1.0919 -0.20507,2.13054 -0.61253,3.11324 -0.41279,0.98537 -1.00135,1.85357 -1.77633,2.61523 -0.79895,0.79895 -1.70709,1.40881 -2.72175,1.83492 -1.01733,0.42611 -2.07727,0.64182 -3.18515,0.64182 z m 14.72464,-15.80321 0,7.56072 c 0,2.29565 0.3249,3.92018 0.98537,4.86294 0.64981,0.94276 1.75768,1.4168 3.3183,1.4168 1.54197,0 2.65784,-0.47671 3.32629,-1.43278 0.67112,-0.95608 1.00934,-2.57528 1.00934,-4.84696 l 0,-7.56072 2.07727,0 0,8.63398 c 0,2.3569 -0.54062,4.13855 -1.61921,5.35296 -1.0839,1.20907 -2.66582,1.81627 -4.7644,1.81627 -2.10123,0 -3.69913,-0.6072 -4.79369,-1.81627 -1.08924,-1.21441 -1.63518,-2.99606 -1.63518,-5.35296 l 0,-8.63398 2.09591,0 z m 28.58107,7.66725 c 0,-1.95743 -0.45007,-3.49674 -1.33957,-4.62059 -0.89216,-1.11853 -2.11988,-1.6778 -3.69381,-1.6778 -1.61387,0 -2.87621,0.54063 -3.78968,1.63252 -0.92145,1.08125 -1.37686,2.57262 -1.37686,4.47678 0,1.9308 0.49003,3.47809 1.4754,4.63124 0.9827,1.15315 2.28233,1.73106 3.89621,1.73106 1.52599,0 2.70843,-0.54328 3.55798,-1.63252 0.84423,-1.08124 1.27033,-2.59658 1.27033,-4.54069 z m -12.26653,15.08416 0,-22.75141 2.03199,0 0,2.83893 c 0.58324,-1.09722 1.33425,-1.93612 2.27168,-2.51669 0.93211,-0.58856 1.97607,-0.88151 3.13987,-0.88151 2.12521,0 3.83762,0.74569 5.14257,2.24239 1.29963,1.4967 1.9521,3.47809 1.9521,5.94684 0,2.48207 -0.63649,4.46347 -1.91215,5.94685 -1.27566,1.48604 -2.96943,2.2264 -5.08398,2.2264 -1.21707,0 -2.28766,-0.29028 -3.22509,-0.8815 -0.93477,-0.58057 -1.69111,-1.44344 -2.285,-2.58327 l 0,10.41297 -2.03199,0 z"
         style="fill:none;stroke:#f42c1b;stroke-width:0.71639115;stroke-linecap:butt;stroke-linejoin:miter;stroke-miterlimit:22.9260006;stroke-opacity:1;stroke-dasharray:none"
         id="path188"
         inkscape:connector-curvature="0" />
      <g
         transform="matrix(2.6631641,0,0,-2.6631641,364.03049,282.01919)"
         id="g190">
        <path
           inkscape:connector-curvature="0"
           id="path192"
           style="fill:none;stroke:#e10c19;stroke-width:0.068;stroke-linecap:butt;stroke-linejoin:miter;stroke-miterlimit:22.9260006;stroke-opacity:1;stroke-dasharray:none"
           d="m 0,0 c -0.628,1.513 -1.463,2.654 -2.397,3.969 0.582,0 10.538,5.873 9.756,3.211" />
      </g>
    </g>
  </g>
</svg>
